<svg width="150" height="40" xmlns="http://www.w3.org/2000/svg" preserveAspectRatio="xMidYMid meet">
 <!-- Created with Method Draw - http://github.com/duopixel/Method-Draw/ -->
 <g>
  <title>background</title>
  <rect fill="#fff" id="canvas_background" height="42" width="152" y="-1" x="-1"/>
 </g>
 <g>
  <title>Layer 1</title>
  <g id="svg_1" fill="#000000" transform="translate(0,612) scale(0.10000000149011612,-0.10000000149011612) ">
   <path id="svg_1" d="m-89644.99861,-251411.07041c-146,-23 -272,-115 -365,-266c-14,-21 -92,-196 -175,-388c-83,-191 -154,-349 -159,-350c-10,-1 -166,374 -173,419c-4,25 1,42 21,71c14,21 26,47 26,57c0,10 -20,38 -45,63l-45,44l-238,0c-274,0 -277,-1 -276,-71c2,-52 29,-79 83,-79c74,0 68,8 311,-515l228,-490l68,-7c57,-6 72,-4 87,10c25,22 90,153 244,487c236,513 355,720 494,856c43,43 79,83 79,88c0,5 -7,14 -15,21c-8,7 -15,20 -15,30c0,29 -40,35 -135,20z"/>
   <path id="svg_2" d="m-8316,29399.10742c-17,-10 -36,-34 -43,-52c-8,-22 -11,-193 -11,-561c0,-577 1,-583 57,-611c30,-15 101,-29 143,-28c13,1 40,12 61,26l36,26l49,-21c166,-72 367,-69 487,7c147,92 227,240 227,418c0,161 -56,278 -186,389c-180,154 -365,192 -539,112l-55,-25l0,102c-1,115 -4,124 -72,186c-57,52 -106,62 -154,32zm596,-501c42,-21 74,-59 111,-130c19,-36 24,-61 24,-125c0,-69 -4,-88 -30,-139c-52,-103 -138,-156 -252,-156c-101,1 -147,27 -191,111c-30,58 -34,75 -34,142c1,99 32,168 106,234c92,80 188,103 266,63z"/>
   <path id="svg_3" d="m-5770,29119.10742c-119,-38 -217,-112 -279,-210c-99,-155 -100,-377 -2,-530c77,-119 248,-230 363,-235c14,0 24,-4 21,-8c-4,-8 48,-11 157,-9c176,4 344,126 411,299c33,86 38,229 10,320c-25,83 -87,179 -144,224c-37,29 -40,30 -24,8c93,-131 122,-211 121,-340c-1,-137 -39,-231 -135,-335c-60,-64 -157,-124 -207,-128c-12,-1 -22,-6 -22,-11c0,-5 -3,-6 -7,-2c-12,12 -10,183 2,183c7,0 10,-30 10,-79c0,-113 19,-104 23,11l3,95l45,48c42,45 81,114 71,125c-3,2 -11,-13 -18,-34c-18,-56 -104,-135 -168,-156c-65,-21 -103,-21 -165,-3c-55,17 -76,38 -113,115c-23,47 -28,69 -28,136c0,67 5,89 27,135c30,61 83,117 143,151c29,16 59,23 112,25c71,3 71,3 120,-38l48,-42l-37,40l-38,40l0,101l0,101l-50,11c-75,16 -187,12 -250,-8z"/>
   <path id="svg_4" d="m-4149,29003.10742c17,-25 40,-71 52,-103c20,-53 22,-79 25,-367l3,-310l-23,-35c-13,-19 -38,-42 -56,-52l-33,-16l30,-7c79,-17 135,29 146,120c4,30 5,166 3,302c-5,228 -7,254 -28,315c-24,69 -93,168 -130,188c-16,9 -14,2 11,-35z"/>
   <path id="svg_5" d="m-4575,28905.10742c-55,-22 -75,-38 -105,-79l-30,-41l0,-271c0,-243 -2,-275 -19,-312c-12,-27 -30,-46 -50,-55c-40,-18 -39,-27 3,-34c40,-8 89,14 108,48c9,16 14,100 18,297c5,265 6,276 28,312c40,64 120,118 175,118c14,0 18,3 11,10c-16,16 -106,21 -139,7z"/>
  </g>
  <g id="svg_18" fill="#000000" transform="translate(0,612) scale(0.10000000149011612,-0.10000000149011612) ">
   <path id="svg_13" d="m3355,4070c-146,-23 -272,-115 -365,-266c-14,-21 -92,-196 -175,-388c-83,-191 -154,-349 -159,-350c-10,-1 -166,374 -173,419c-4,25 1,42 21,71c14,21 26,47 26,57c0,10 -20,38 -45,63l-45,44l-238,0c-274,0 -277,-1 -276,-71c2,-52 29,-79 83,-79c74,0 68,8 311,-515l228,-490l68,-7c57,-6 72,-4 87,10c25,22 90,153 244,487c236,513 355,720 494,856c43,43 79,83 79,88c0,5 -7,14 -15,21c-8,7 -15,20 -15,30c0,29 -40,35 -135,20z"/>
   <path id="svg_14" d="m984,3851c-17,-10 -36,-34 -43,-52c-8,-22 -11,-193 -11,-561c0,-577 1,-583 57,-611c30,-15 101,-29 143,-28c13,1 40,12 61,26l36,26l49,-21c166,-72 367,-69 487,7c147,92 227,240 227,418c0,161 -56,278 -186,389c-180,154 -365,192 -539,112l-55,-25l0,102c-1,115 -4,124 -72,186c-57,52 -106,62 -154,32zm596,-501c42,-21 74,-59 111,-130c19,-36 24,-61 24,-125c0,-69 -4,-88 -30,-139c-52,-103 -138,-156 -252,-156c-101,1 -147,27 -191,111c-30,58 -34,75 -34,142c1,99 32,168 106,234c92,80 188,103 266,63z"/>
   <path id="svg_15" d="m3530,3571c-119,-38 -217,-112 -279,-210c-99,-155 -100,-377 -2,-530c77,-119 248,-230 363,-235c14,0 24,-4 21,-8c-4,-8 48,-11 157,-9c176,4 344,126 411,299c33,86 38,229 10,320c-25,83 -87,179 -144,224c-37,29 -40,30 -24,8c93,-131 122,-211 121,-340c-1,-137 -39,-231 -135,-335c-60,-64 -157,-124 -207,-128c-12,-1 -22,-6 -22,-11c0,-5 -3,-6 -7,-2c-12,12 -10,183 2,183c7,0 10,-30 10,-79c0,-113 19,-104 23,11l3,95l45,48c42,45 81,114 71,125c-3,2 -11,-13 -18,-34c-18,-56 -104,-135 -168,-156c-65,-21 -103,-21 -165,-3c-55,17 -76,38 -113,115c-23,47 -28,69 -28,136c0,67 5,89 27,135c30,61 83,117 143,151c29,16 59,23 112,25c71,3 71,3 120,-38l48,-42l-37,40l-38,40l0,101l0,101l-50,11c-75,16 -187,12 -250,-8z"/>
   <path id="svg_16" d="m5151,3455c17,-25 40,-71 52,-103c20,-53 22,-79 25,-367l3,-310l-23,-35c-13,-19 -38,-42 -56,-52l-33,-16l30,-7c79,-17 135,29 146,120c4,30 5,166 3,302c-5,228 -7,254 -28,315c-24,69 -93,168 -130,188c-16,9 -14,2 11,-35z"/>
   <path id="svg_17" d="m4725,3357c-55,-22 -75,-38 -105,-79l-30,-41l0,-271c0,-243 -2,-275 -19,-312c-12,-27 -30,-46 -50,-55c-40,-18 -39,-27 3,-34c40,-8 89,14 108,48c9,16 14,100 18,297c5,265 6,276 28,312c40,64 120,118 175,118c14,0 18,3 11,10c-16,16 -106,21 -139,7z"/>
  </g>
  <g id="svg_24" fill="#000000" transform="translate(0,612) scale(0.10000000149011612,-0.10000000149011612) ">
   <path stroke="null" id="svg_19" d="m832.89999,6090.28846c-28.4715,-4.48524 -53.0428,-22.42619 -71.17876,-51.87274c-2.73014,-4.09522 -17.94095,-38.22202 -34.1268,-75.664c-16.18586,-37.24697 -30.03159,-68.0586 -31.00664,-68.25361c-1.9501,-0.19501 -32.37171,72.93385 -33.73678,81.70932c-0.78004,4.87526 0.19501,8.19043 4.09522,13.84573c2.73014,4.09522 5.07027,9.16548 5.07027,11.11559c0,1.9501 -3.90021,7.41039 -8.77546,12.28565l-8.77546,8.58045l-46.41245,0c-53.43282,0 -54.01785,-0.19501 -53.82284,-13.84573c0.39002,-10.14054 5.6553,-15.40581 16.18586,-15.40581c14.43076,0 13.2607,1.56008 60.64821,-100.43031l44.46235,-95.55505l13.2607,-1.36507c11.11559,-1.17006 14.04074,-0.78004 16.9659,1.9501c4.87526,4.29023 17.55093,29.83658 47.58251,94.97002c46.02243,100.04029 69.22866,140.40742 96.33509,166.92882c8.38544,8.38544 15.40581,16.18586 15.40581,17.16091c0,0.97505 -1.36507,2.73014 -2.92515,4.09522c-1.56008,1.36507 -2.92515,3.90021 -2.92515,5.85031c0,5.6553 -7.80041,6.82536 -26.32639,3.90021z"/>
   <path stroke="null" id="svg_20" d="m370.53056,6047.58121c-3.31518,-1.9501 -7.02037,-6.63035 -8.38544,-10.14054c-1.56008,-4.29023 -2.14511,-37.63699 -2.14511,-109.40078c0,-112.52095 0.19501,-113.69101 11.11559,-119.1513c5.85031,-2.92515 19.69604,-5.6553 27.88647,-5.46029c2.53513,0.19501 7.80041,2.34012 11.89563,5.07027l7.02037,5.07027l9.55551,-4.09522c32.37171,-14.04074 71.56878,-13.45571 94.97002,1.36507c28.66652,17.94095 44.26734,46.80247 44.26734,81.51431c0,31.39666 -10.92058,54.21287 -36.27192,75.85901c-35.10186,30.03159 -71.17876,37.44198 -105.11056,21.84115l-10.72557,-4.87526l0,19.89105c-0.19501,22.42619 -0.78004,24.18128 -14.04074,36.27192c-11.11559,10.14054 -20.67109,12.09064 -30.03159,6.24033zm116.22614,-97.70016c8.19043,-4.09522 14.43076,-11.50561 21.64614,-25.35134c3.7052,-7.02037 4.68025,-11.89563 4.68025,-24.37629c0,-13.45571 -0.78004,-17.16091 -5.85031,-27.10643c-10.14054,-20.08606 -26.91142,-30.42161 -49.1426,-30.42161c-19.69604,0.19501 -28.66652,5.26528 -37.24697,21.64614c-5.85031,11.3106 -6.63035,14.62577 -6.63035,27.69146c0.19501,19.30602 6.24033,32.76173 20.67109,45.63241c17.94095,15.60082 36.66194,20.08606 51.87274,12.28565z"/>
   <path stroke="null" id="svg_21" d="m867.0268,5992.97832c-23.20623,-7.41039 -42.31724,-21.84115 -54.40788,-40.95216c-19.30602,-30.2266 -19.50103,-73.51889 -0.39002,-103.35546c15.01579,-23.20623 48.36256,-44.85237 70.78874,-45.82742c2.73014,0 4.68025,-0.78004 4.09522,-1.56008c-0.78004,-1.56008 9.36049,-2.14511 30.61662,-1.75509c34.32181,0.78004 67.08355,24.5713 80.14924,58.30808c6.43534,16.77089 7.41039,44.65736 1.9501,62.4033c-4.87526,16.18586 -16.9659,34.90684 -28.08148,43.68231c-7.21538,5.6553 -7.80041,5.85031 -4.68025,1.56008c18.13596,-25.54635 23.79126,-41.14717 23.59625,-66.3035c-0.19501,-26.71641 -7.6054,-45.04738 -26.32639,-65.32845c-11.70062,-12.48066 -30.61662,-24.18128 -40.36713,-24.96132c-2.34012,-0.19501 -4.29023,-1.17006 -4.29023,-2.14511c0,-0.97505 -0.58503,-1.17006 -1.36507,-0.39002c-2.34012,2.34012 -1.9501,35.68689 0.39002,35.68689c1.36507,0 1.9501,-5.85031 1.9501,-15.40581c0,-22.03616 3.7052,-20.28107 4.48524,2.14511l0.58503,18.52598l8.77546,9.36049c8.19043,8.77546 15.79583,22.23117 13.84573,24.37629c-0.58503,0.39002 -2.14511,-2.53513 -3.51019,-6.63035c-3.51019,-10.92058 -20.28107,-26.32639 -32.76173,-30.42161c-12.67567,-4.09522 -20.08606,-4.09522 -32.1767,-0.58503c-10.72557,3.31518 -14.82078,7.41039 -22.03616,22.42619c-4.48524,9.16548 -5.46029,13.45571 -5.46029,26.5214c0,13.06569 0.97505,17.35592 5.26528,26.32639c5.85031,11.89563 16.18586,22.81621 27.88647,29.44656c5.6553,3.12016 11.50561,4.48524 21.84115,4.87526c13.84573,0.58503 13.84573,0.58503 23.40124,-7.41039l9.36049,-8.19043l-7.21538,7.80041l-7.41039,7.80041l0,19.69604l0,19.69604l-9.75052,2.14511c-14.62577,3.12016 -36.46693,2.34012 -48.75258,-1.56008z"/>
   <path stroke="null" id="svg_22" d="m1183.1385,5970.35712c3.31518,-4.87526 7.80041,-13.84573 10.14054,-20.08606c3.90021,-10.33555 4.29023,-15.40581 4.87526,-71.56878l0.58503,-60.4532l-4.48524,-6.82536c-2.53513,-3.7052 -7.41039,-8.19043 -10.92058,-10.14054l-6.43534,-3.12016l5.85031,-1.36507c15.40581,-3.31518 26.32639,5.6553 28.4715,23.40124c0.78004,5.85031 0.97505,32.37171 0.58503,58.89311c-0.97505,44.46235 -1.36507,49.53262 -5.46029,61.42825c-4.68025,13.45571 -18.13596,32.76173 -25.35134,36.66194c-3.12016,1.75509 -2.73014,0.39002 2.14511,-6.82536z"/>
   <path stroke="null" id="svg_23" d="m1100.06411,5951.24611c-10.72557,-4.29023 -14.62577,-7.41039 -20.47608,-15.40581l-5.85031,-7.99542l0,-52.84779c0,-47.3875 -0.39002,-53.62783 -3.7052,-60.84322c-2.34012,-5.26528 -5.85031,-8.97047 -9.75052,-10.72557c-7.80041,-3.51019 -7.6054,-5.26528 0.58503,-6.63035c7.80041,-1.56008 17.35592,2.73014 21.06111,9.36049c1.75509,3.12016 2.73014,19.50103 3.51019,57.91806c0.97505,51.67773 1.17006,53.82284 5.46029,60.84322c7.80041,12.48066 23.40124,23.01122 34.1268,23.01122c2.73014,0 3.51019,0.58503 2.14511,1.9501c-3.12016,3.12016 -20.67109,4.09522 -27.10643,1.36507z"/>
  </g>
 </g>
</svg>